<?xml version="1.0" standalone="no"?>
<!DOCTYPE svg PUBLIC "-//W3C//DTD SVG 20010904//EN"
 "http://www.w3.org/TR/2001/REC-SVG-20010904/DTD/svg10.dtd">
<svg version="1.0" xmlns="http://www.w3.org/2000/svg"
 width="256.000000pt" height="256.000000pt" viewBox="0 0 256.000000 256.000000"
 preserveAspectRatio="xMidYMid meet">
<metadata>
Created by potrace 1.14, written by Peter Selinger 2001-2017
</metadata>
<g transform="translate(0.000000,256.000000) scale(0.100000,-0.100000)"
fill="#000000" stroke="none">
<path d="M1128 2486 c-1 -2 -23 -6 -48 -9 -86 -11 -130 -20 -126 -26 2 -3 -12
-6 -32 -6 -58 -1 -173 -38 -305 -99 -328 -150 -514 -427 -465 -692 11 -60 10
-57 2 -124 -4 -30 -6 -84 -6 -120 1 -202 1 -283 0 -350 -1 -73 8 -155 19 -174
4 -5 0 -6 -8 -1 -12 8 -12 6 0 -8 7 -9 11 -17 7 -17 -3 0 -1 -11 4 -25 6 -15
6 -26 0 -30 -6 -4 -4 -13 5 -22 12 -12 13 -18 4 -29 -7 -8 -9 -17 -5 -21 3 -3
6 -1 6 6 0 7 5 9 10 6 8 -5 7 -11 -1 -21 -10 -12 -9 -13 6 -8 14 6 16 4 9 -7
-12 -20 -14 -40 -3 -33 5 3 7 10 4 15 -10 16 2 10 16 -8 7 -10 9 -15 5 -11 -9
8 -35 -20 -35 -37 0 -5 4 -2 10 8 15 25 22 22 56 -26 30 -42 33 -47 33 -68 0
-5 4 -8 8 -5 4 2 14 1 22 -5 10 -6 11 -9 3 -9 -7 0 -13 -5 -13 -11 0 -6 9 -8
23 -4 22 7 22 7 2 -8 -18 -14 -21 -14 -33 9 -15 28 -27 31 -36 8 -10 -26 -7
-29 10 -8 15 19 15 18 11 -4 -3 -12 -1 -20 3 -17 5 3 11 1 15 -5 4 -6 11 -7
17 -4 6 4 9 1 6 -7 -6 -18 -29 -19 -50 -1 -12 10 -18 11 -24 1 -4 -7 -3 -10 3
-6 6 4 16 1 22 -7 12 -14 17 -14 59 -1 19 6 21 10 10 24 -11 14 -11 14 3 4 9
-7 20 -9 25 -5 4 4 3 0 -4 -9 -9 -12 -8 -20 3 -36 14 -20 10 -67 -5 -58 -5 3
-11 1 -14 -4 -3 -5 8 -7 24 -6 17 1 30 -1 30 -6 0 -5 -5 -9 -12 -9 -6 0 -8 -3
-4 -7 4 -5 14 1 22 11 8 11 14 16 14 12 0 -5 6 -4 13 2 8 7 18 7 27 2 11 -7
12 -10 2 -10 -7 0 -10 -5 -7 -10 5 -8 11 -7 21 1 10 8 14 8 14 0 0 -10 -14
-15 -33 -12 -5 1 -6 -3 -2 -9 3 -5 1 -10 -6 -10 -7 0 -2 -8 9 -19 12 -10 18
-22 14 -27 -4 -5 4 0 17 11 20 17 23 17 18 3 -3 -9 1 -22 8 -28 8 -7 12 -17 9
-22 -4 -6 2 -6 13 1 17 8 24 6 41 -14 12 -14 26 -25 32 -25 5 0 7 -8 4 -17 -5
-15 -4 -16 5 -3 10 13 13 13 22 -3 8 -13 14 -15 29 -7 28 15 35 12 17 -8 -14
-15 -15 -19 -2 -19 8 0 12 4 10 8 -3 3 3 13 12 20 15 12 16 12 10 -4 -6 -15
-4 -16 16 -6 28 15 37 24 15 16 -10 -3 -20 -2 -23 4 -4 5 -10 7 -15 4 -15 -9
-19 23 -4 42 10 13 14 14 12 3 -2 -11 4 -14 22 -13 21 2 22 1 6 -5 -15 -7 -17
-10 -6 -17 8 -5 18 -1 28 11 13 17 14 18 8 1 -4 -14 -2 -18 12 -15 9 2 16 10
14 17 -1 7 2 10 7 7 10 -7 9 -25 -2 -42 -4 -8 4 -11 26 -10 18 2 31 7 29 14
-1 7 2 12 8 12 14 0 13 -13 -2 -29 -11 -11 -9 -12 10 -6 24 7 27 3 12 -25 -7
-13 -7 -21 2 -26 7 -4 8 -3 4 5 -4 6 -1 14 8 17 8 3 14 11 12 17 -1 7 -1 9 1
4 3 -4 10 -4 16 0 7 3 4 -3 -6 -15 -19 -21 -16 -43 6 -41 9 0 9 2 0 6 -7 2
-13 8 -13 13 0 7 20 7 60 1 3 -1 -2 -6 -10 -12 -13 -9 -13 -10 0 -6 8 2 14 10
12 17 -1 6 3 10 10 7 7 -2 12 -9 11 -15 -2 -6 10 -9 28 -7 16 2 27 1 25 -4 -3
-4 1 -8 9 -8 8 0 12 4 9 9 -3 4 5 6 18 4 14 -2 22 -10 22 -20 -1 -9 2 -13 7
-10 5 3 8 13 7 21 -2 9 3 18 10 20 6 3 10 -1 9 -9 -2 -7 -2 -9 1 -4 3 5 11 -2
19 -15 l14 -24 -7 25 c-6 20 -4 23 7 14 18 -14 66 -16 74 -4 4 6 10 8 15 5 5
-3 11 -1 15 5 3 5 11 10 17 10 7 0 6 -6 -2 -15 -7 -8 -18 -15 -26 -15 -7 0
-16 -4 -19 -10 -9 -14 26 0 49 19 20 18 26 18 36 2 8 -13 40 -4 40 11 0 6 -8
4 -17 -3 -9 -8 -14 -9 -10 -3 4 7 0 11 -11 10 -9 0 -17 2 -17 5 0 3 -7 14 -15
25 -13 17 -13 18 0 9 8 -6 41 -10 73 -9 31 1 57 -1 57 -5 0 -5 -16 -6 -36 -4
-23 2 -33 0 -29 -7 3 -6 11 -8 16 -4 6 3 9 -2 7 -11 -2 -9 7 -24 20 -32 12 -9
22 -11 22 -5 0 5 -9 12 -20 15 -27 7 -16 34 13 33 12 -1 22 5 23 12 1 6 3 15
4 20 1 4 2 12 0 17 -1 6 5 4 12 -4 10 -11 10 -14 0 -18 -6 -3 -9 -9 -6 -14 4
-6 11 -6 19 1 9 8 15 8 20 0 3 -5 22 -10 40 -10 28 0 33 -3 29 -17 -5 -17 -5
-17 6 -1 10 17 13 17 36 2 13 -9 27 -14 31 -10 3 3 1 6 -7 6 -10 0 -10 3 0 15
7 8 10 16 6 16 -3 1 -10 2 -15 3 -6 0 -16 7 -22 13 -11 11 -10 15 0 25 10 11
11 10 6 -4 -7 -18 9 -19 35 -3 13 8 13 7 1 -8 -16 -21 -3 -22 23 -2 16 12 22
12 35 2 12 -10 14 -9 9 4 -4 10 -1 16 8 16 18 0 18 -11 -2 -28 -13 -10 -17
-10 -25 2 -6 10 -9 10 -9 1 0 -6 -5 -11 -11 -10 -6 2 -13 -5 -14 -15 -3 -15
-1 -16 11 -6 13 10 14 8 10 -16 -3 -15 -2 -24 2 -20 7 6 8 10 11 36 0 5 6 7
11 4 6 -3 10 -2 10 3 0 4 15 8 33 8 17 -1 32 -6 32 -13 0 -6 3 -14 7 -18 9 -9
4 17 -6 34 -7 10 -3 12 14 6 19 -6 22 -4 17 9 -4 10 -1 16 9 16 8 0 12 5 9 10
-5 8 -11 7 -21 -1 -7 -6 -12 -14 -10 -18 3 -4 -4 -7 -15 -7 -10 0 -19 4 -19 8
0 4 7 8 16 8 9 0 12 5 8 12 -4 6 -3 9 2 6 11 -7 35 17 27 26 -4 3 -1 6 6 6 7
0 11 -7 8 -15 -4 -8 -2 -17 3 -20 13 -8 18 17 8 45 -11 28 -1 21 16 -11 6 -12
14 -20 17 -18 3 2 14 -3 24 -11 15 -12 17 -12 10 -1 -6 11 -4 13 8 8 11 -4 14
-2 10 9 -6 16 17 16 28 0 4 -5 12 1 19 13 9 18 14 20 25 11 21 -18 37 -3 23
20 -11 17 -14 18 -29 5 -14 -14 -17 -12 -28 12 -10 24 -10 26 2 11 14 -18 33
-25 23 -9 -3 5 0 14 8 20 16 13 49 4 40 -11 -4 -6 -10 -5 -15 3 -4 7 -10 11
-13 8 -3 -3 5 -16 19 -29 14 -13 25 -18 25 -12 0 7 -5 12 -11 12 -5 0 -8 4 -4
9 3 6 14 8 25 6 13 -2 24 4 32 18 13 26 40 47 50 41 5 -3 8 0 8 5 0 6 -5 11
-11 11 -5 0 -7 5 -4 10 5 8 11 7 21 -1 10 -8 14 -8 14 0 0 6 -4 11 -10 11 -5
0 -7 7 -3 16 5 14 8 12 19 -7 7 -13 13 -18 14 -11 0 6 -8 20 -18 30 -25 25
-25 51 0 44 10 -2 18 1 18 7 0 8 4 8 14 -1 8 -7 12 -17 9 -22 -3 -4 -9 -2 -14
5 -6 10 -9 10 -9 2 0 -7 -7 -10 -17 -6 -11 4 -14 3 -9 -6 5 -7 14 -10 22 -7
10 4 14 0 12 -11 -2 -9 4 -18 12 -20 11 -3 11 -2 3 4 -9 7 -8 15 6 36 9 15 22
24 26 20 5 -5 4 -1 -3 8 -14 19 -7 29 22 30 21 0 21 1 1 8 -20 8 -49 -15 -39
-31 3 -5 0 -8 -5 -8 -14 0 -14 17 -1 25 6 3 10 11 10 18 0 8 -3 8 -12 -1 -7
-7 -16 -12 -22 -12 -5 0 -1 6 9 14 11 8 23 12 27 10 3 -2 9 5 13 16 4 11 11
17 17 14 7 -5 9 -1 5 9 -3 10 -2 17 4 17 6 0 7 5 3 11 -3 6 5 3 20 -6 24 -16
26 -16 20 -1 -3 9 -11 16 -18 16 -6 0 -4 5 4 10 8 5 11 10 6 10 -11 0 14 30
25 30 5 0 6 -7 3 -15 -4 -8 -9 -13 -13 -10 -4 2 -8 -2 -8 -9 0 -11 4 -12 18
-3 17 11 18 18 4 51 -6 14 -2 24 16 38 13 11 19 17 12 14 -8 -4 -6 7 4 34 9
22 19 37 24 35 4 -3 11 0 15 6 4 7 3 9 -4 5 -19 -12 -24 15 -6 30 11 9 13 13
6 9 -6 -3 -12 -1 -12 4 0 6 6 11 13 11 7 0 8 3 2 8 -9 6 -11 27 -5 42 5 14 12
113 12 175 -2 142 -2 262 -1 330 0 39 0 108 -2 155 -1 47 0 119 3 160 21 290
-211 555 -608 693 -55 19 -135 42 -179 51 -44 8 -93 18 -110 22 -31 6 -400 15
-407 10z m-708 -2055 c13 -11 12 -12 -6 -3 -12 7 -24 19 -28 29 -5 16 -4 16 7
3 7 -8 19 -21 27 -29z m1750 -31 c0 -4 -7 -13 -15 -20 -8 -7 -12 -16 -9 -21 3
-5 0 -9 -6 -9 -5 0 -18 -12 -28 -27 -9 -16 -22 -29 -28 -30 -18 -3 -48 34 -34
42 6 3 10 3 9 -2 -3 -20 2 -27 11 -13 9 13 11 13 20 0 6 -9 10 -10 10 -3 0 7
-8 17 -17 22 -15 8 -15 11 -3 12 8 1 18 1 23 0 4 0 7 4 7 9 0 6 -5 10 -12 10
-6 0 -8 3 -4 7 4 5 15 -1 23 -12 15 -20 15 -20 10 2 -3 15 -1 20 9 16 9 -3 12
2 9 16 -2 14 1 18 11 14 8 -3 14 -9 14 -13z m-1730 -2 c0 -4 -3 -8 -7 -9 -5 0
-16 -2 -25 -4 -10 -2 -18 3 -18 11 0 9 9 13 25 12 14 -1 25 -6 25 -10z m84
-56 c-6 -4 -14 -15 -17 -26 -6 -15 -10 -16 -23 -5 -14 11 -13 14 8 25 25 14
51 19 32 6z m1482 -17 c-1 -8 -5 -17 -8 -21 -5 -4 -4 16 1 34 3 9 9 -1 7 -13z
m-1442 -7 c-3 -4 -9 -8 -15 -8 -5 0 -9 4 -9 8 0 5 7 9 15 9 8 0 12 -4 9 -9z
m25 -15 c-4 -28 2 -33 24 -23 20 10 20 9 -3 -9 -18 -15 -20 -21 -9 -21 8 0 21
6 28 13 11 10 13 10 7 0 -4 -7 -2 -13 3 -13 6 0 11 -5 11 -11 0 -8 -4 -8 -14
0 -11 9 -16 9 -22 0 -4 -7 -3 -9 4 -5 6 3 13 2 17 -4 4 -6 11 -7 17 -4 6 4 8
2 5 -3 -4 -6 0 -14 9 -17 8 -3 12 -2 9 4 -3 6 -1 10 4 10 15 0 14 -27 -1 -32
-6 -2 -19 2 -27 9 -59 50 -91 74 -91 69 0 -4 -9 -2 -20 4 -22 12 -17 35 6 26
7 -3 16 -1 19 4 7 12 26 13 24 3z m1390 -57 c1 -6 -5 -11 -14 -12 -8 -1 -15 2
-15 7 0 5 5 9 11 9 5 0 7 5 4 10 -4 6 -11 8 -16 5 -5 -3 -6 1 -3 10 6 14 8 14
19 -2 7 -10 13 -22 14 -27z m-69 10 c0 -2 -8 -10 -17 -17 -16 -13 -17 -12 -4
4 13 16 21 21 21 13z m125 -6 c3 -5 2 -10 -4 -10 -5 0 -13 5 -16 10 -3 6 -2
10 4 10 5 0 13 -4 16 -10z m-1355 -10 c0 -5 -4 -10 -10 -10 -5 0 -10 5 -10 10
0 6 5 10 10 10 6 0 10 -4 10 -10z m1260 1 c0 -11 -19 -25 -38 -27 -10 -2 -8 3
4 17 18 20 34 25 34 10z m-150 -37 c0 -8 -4 -14 -10 -14 -5 0 -6 8 -3 18 6 15
5 16 -13 2 -18 -14 -18 -14 -5 2 15 19 31 15 31 -8z m-243 -29 c0 -8 -4 -12
-9 -9 -5 3 -6 10 -3 15 9 13 12 11 12 -6z m-464 -10 c-3 -9 -8 -14 -10 -11 -3
3 -2 9 2 15 9 16 15 13 8 -4z m687 2 c0 -8 -7 -14 -15 -14 -11 0 -12 4 -4 14
6 7 13 13 15 13 2 0 4 -6 4 -13z m-796 -21 c-3 -9 -10 -16 -15 -16 -5 0 -4 9
3 20 14 22 21 20 12 -4z m99 -12 c9 -1 17 1 17 5 0 4 9 7 20 8 11 1 20 -4 20
-10 0 -7 4 -6 10 3 6 9 10 10 10 3 0 -13 -17 -26 -38 -29 -11 -2 -11 1 0 14
12 15 10 15 -14 -1 -18 -11 -29 -13 -34 -6 -4 8 -9 7 -15 -2 -6 -11 -12 -10
-28 5 -11 10 -25 15 -32 10 -8 -4 -10 -3 -5 5 4 6 18 9 32 7 17 -3 24 0 25 12
0 14 2 14 8 -2 4 -11 15 -20 24 -22z m216 33 c-2 -1 -13 -9 -24 -17 -19 -14
-19 -14 -6 3 7 9 18 17 24 17 6 0 8 -1 6 -3z m354 -31 c9 5 9 4 0 -6 -7 -7
-17 -9 -25 -4 -7 5 -19 9 -27 11 -7 1 -19 7 -25 13 -8 8 -6 9 7 5 10 -4 17 -2
17 4 0 6 9 2 20 -9 12 -12 26 -18 33 -14z m-98 6 c-3 -3 -11 0 -18 7 -9 10 -8
11 6 5 10 -3 15 -9 12 -12z m-338 -6 c-13 -10 -15 -15 -5 -19 7 -2 18 5 24 16
11 20 12 20 18 -1 7 -21 7 -21 28 -2 23 21 46 17 27 -6 -6 -7 -15 -12 -19 -9
-5 3 -11 1 -14 -4 -8 -12 -65 -11 -72 1 -3 4 -9 6 -14 3 -4 -3 -11 2 -14 11
-3 8 -2 12 4 9 5 -3 18 -1 27 4 26 15 31 13 10 -3z"/>
<path d="M2096 338 c3 -5 10 -6 15 -3 13 9 11 12 -6 12 -8 0 -12 -4 -9 -9z"/>
<path d="M547 277 c3 -4 8 -6 11 -3 3 3 11 1 19 -6 11 -8 12 -7 7 5 -3 9 -14
15 -24 14 -10 -1 -16 -5 -13 -10z"/>
<path d="M1026 128 c3 -5 10 -6 15 -3 13 9 11 12 -6 12 -8 0 -12 -4 -9 -9z"/>
<path d="M2400 695 c-7 -9 -11 -17 -9 -20 3 -2 10 5 17 15 14 24 10 26 -8 5z"/>
<path d="M2371 660 c14 -31 19 -36 19 -24 0 6 -7 19 -16 30 -14 18 -14 18 -3
-6z"/>
<path d="M216 635 c-3 -9 -2 -14 3 -11 5 3 15 -2 22 -11 12 -14 11 -15 -9 -9
-13 5 -22 3 -22 -3 0 -6 3 -10 8 -10 24 4 34 -2 28 -18 -4 -10 -4 -14 0 -10 4
4 13 2 20 -4 9 -7 12 -6 10 6 -1 9 -8 20 -15 24 -7 5 -13 12 -13 17 0 5 -6 17
-13 27 -11 16 -13 16 -19 2z"/>
<path d="M2300 560 c0 -5 5 -10 11 -10 5 0 7 5 4 10 -3 6 -8 10 -11 10 -2 0
-4 -4 -4 -10z"/>
<path d="M2328 544 c-5 -5 -28 -11 -50 -13 -5 -1 -8 -5 -8 -9 0 -15 34 -9 54
10 11 10 17 18 15 18 -3 0 -8 -3 -11 -6z"/>
<path d="M2330 499 c0 -5 5 -7 10 -4 6 3 10 8 10 11 0 2 -4 4 -10 4 -5 0 -10
-5 -10 -11z"/>
<path d="M2277 469 c7 -7 15 -10 18 -7 3 3 -2 9 -12 12 -14 6 -15 5 -6 -5z"/>
<path d="M343 452 c-8 -5 -8 -12 2 -26 13 -18 41 -14 29 5 -3 5 -10 6 -16 3
-7 -5 -9 -1 -5 9 7 19 7 20 -10 9z"/>
<path d="M2275 440 c-3 -5 -1 -10 4 -10 6 0 11 5 11 10 0 6 -2 10 -4 10 -3 0
-8 -4 -11 -10z"/>
<path d="M310 436 c0 -2 8 -10 18 -17 15 -13 16 -12 3 4 -13 16 -21 21 -21 13z"/>
<path d="M2275 411 c-3 -5 -2 -12 3 -15 5 -3 9 1 9 9 0 17 -3 19 -12 6z"/>
<path d="M433 358 c-24 -27 -27 -59 -4 -50 10 4 11 7 3 10 -7 2 -12 8 -12 13
0 6 4 8 9 4 10 -6 24 11 27 33 3 16 1 16 -23 -10z"/>
<path d="M2235 360 c-3 -5 -1 -10 4 -10 6 0 11 5 11 10 0 6 -2 10 -4 10 -3 0
-8 -4 -11 -10z"/>
<path d="M356 342 c-3 -5 1 -9 9 -9 8 0 12 4 9 9 -3 4 -7 8 -9 8 -2 0 -6 -4
-9 -8z"/>
<path d="M2140 320 c-9 -6 -10 -10 -3 -10 6 0 15 5 18 10 8 12 4 12 -15 0z"/>
<path d="M2190 326 c0 -2 7 -7 16 -10 8 -3 12 -2 9 4 -6 10 -25 14 -25 6z"/>
<path d="M2116 285 c-3 -8 -1 -15 4 -15 6 0 10 7 10 15 0 8 -2 15 -4 15 -2 0
-6 -7 -10 -15z"/>
<path d="M460 266 c0 -7 40 -14 44 -7 3 4 -6 8 -20 9 -13 1 -24 0 -24 -2z"/>
<path d="M2087 259 c7 -7 15 -10 18 -7 3 3 -2 9 -12 12 -14 6 -15 5 -6 -5z"/>
<path d="M510 241 c0 -6 4 -13 10 -16 6 -3 7 1 4 9 -7 18 -14 21 -14 7z"/>
<path d="M550 230 c-13 -8 -12 -10 3 -10 9 0 17 5 17 10 0 12 -1 12 -20 0z"/>
<path d="M2070 229 c0 -5 5 -7 10 -4 6 3 10 8 10 11 0 2 -4 4 -10 4 -5 0 -10
-5 -10 -11z"/>
<path d="M1997 215 c-4 -8 -3 -16 1 -19 4 -3 9 4 9 15 2 23 -3 25 -10 4z"/>
<path d="M711 217 c2 -1 13 -9 24 -17 19 -14 19 -14 6 3 -7 9 -18 17 -24 17
-6 0 -8 -1 -6 -3z"/>
<path d="M570 198 c0 -6 3 -8 7 -5 3 4 13 1 22 -6 14 -11 14 -10 2 6 -15 20
-31 22 -31 5z"/>
<path d="M1862 185 c-15 -32 -15 -35 -1 -35 5 0 7 5 4 10 -5 9 24 15 48 11 5
-1 6 3 2 9 -4 6 -15 8 -26 5 -14 -5 -17 -3 -13 9 10 26 -2 18 -14 -9z"/>
<path d="M776 188 c3 -4 -5 -12 -16 -18 -11 -6 -20 -16 -20 -23 0 -7 4 -6 10
3 5 8 10 11 10 5 0 -5 5 -2 11 8 6 9 14 15 18 12 5 -2 13 1 19 8 8 9 4 12 -13
12 -13 0 -21 -3 -19 -7z"/>
<path d="M1945 187 c-14 -11 -15 -16 -5 -22 8 -5 11 -4 7 2 -8 13 20 26 35 16
7 -3 8 -1 4 5 -9 15 -18 15 -41 -1z"/>
<path d="M780 158 c0 -6 7 -8 15 -4 8 3 19 -2 24 -12 6 -10 11 -12 11 -4 0 6
4 12 10 12 5 0 7 -6 4 -13 -2 -7 3 -21 11 -32 16 -19 16 -19 6 2 -13 26 -14
36 -2 29 4 -3 16 1 26 8 17 12 16 13 -6 11 -13 -1 -28 3 -32 9 -6 8 -10 7 -14
-2 -2 -6 -10 -9 -16 -5 -19 12 -37 12 -37 1z"/>
<path d="M795 130 c-3 -5 -1 -10 4 -10 6 0 11 5 11 10 0 6 -2 10 -4 10 -3 0
-8 -4 -11 -10z"/>
<path d="M1336 132 c-2 -4 6 -8 19 -8 13 0 21 4 19 8 -3 4 -11 8 -19 8 -8 0
-16 -4 -19 -8z"/>
<path d="M1494 129 c-4 -7 -2 -15 4 -17 7 -2 9 -9 6 -14 -4 -6 -2 -8 4 -5 10
7 11 32 0 42 -3 4 -9 1 -14 -6z"/>
<path d="M1470 116 c0 -8 4 -17 9 -20 5 -4 7 3 4 14 -6 23 -13 26 -13 6z"/>
<path d="M1740 126 c0 -2 9 -6 20 -9 11 -3 18 -1 14 4 -5 9 -34 13 -34 5z"/>
<path d="M882 104 c10 -10 20 -16 22 -13 3 3 -5 11 -17 18 -21 13 -21 12 -5
-5z"/>
<path d="M1534 104 c1 -8 8 -20 16 -27 12 -10 12 -9 1 5 -10 14 -9 17 6 20 16
3 15 5 -3 10 -15 4 -21 1 -20 -8z"/>
<path d="M976 78 c3 -5 10 -6 15 -3 13 9 11 12 -6 12 -8 0 -12 -4 -9 -9z"/>
<path d="M1015 80 c3 -5 8 -10 11 -10 2 0 4 5 4 10 0 6 -5 10 -11 10 -5 0 -7
-4 -4 -10z"/>
</g>
</svg>
